<svg id="visual" viewBox="0 0 900 600" width="900" height="600" xmlns="http://www.w3.org/2000/svg" xmlns:xlink="http://www.w3.org/1999/xlink" version="1.1"><rect x="0" y="0" width="900" height="600" fill="#1f2937"></rect><defs><linearGradient id="grad1_0" x1="33.3%" y1="100%" x2="100%" y2="0%"><stop offset="20%" stop-color="#1f2937" stop-opacity="1"></stop><stop offset="80%" stop-color="#1f2937" stop-opacity="1"></stop></linearGradient></defs><defs><linearGradient id="grad2_0" x1="0%" y1="100%" x2="66.7%" y2="0%"><stop offset="20%" stop-color="#1f2937" stop-opacity="1"></stop><stop offset="80%" stop-color="#1f2937" stop-opacity="1"></stop></linearGradient></defs><g transform="translate(900, 600)"><path d="M-189.3 0C-174.8 -20.8 -160.3 -41.5 -150.6 -62.4C-140.9 -83.2 -136.1 -104.2 -124.5 -124.5C-112.8 -144.7 -94.3 -164.2 -72.4 -174.9C-50.6 -185.6 -25.3 -187.4 0 -189.3L0 0Z" fill="#0d9488"></path></g><g transform="translate(0, 0)"><path d="M189.3 0C185.5 23.9 181.8 47.8 173.7 71.9C165.6 96.1 153.1 120.5 133.8 133.8C114.6 147.2 88.5 149.6 65.1 157.1C41.6 164.5 20.8 176.9 0 189.3L0 0Z" fill="#0d9488"></path></g></svg>