<svg id="visual" viewBox="0 0 900 600" width="900" height="600" xmlns="http://www.w3.org/2000/svg" xmlns:xlink="http://www.w3.org/1999/xlink" version="1.1"><rect x="0" y="0" width="900" height="600" fill="#1f2937"></rect><defs><linearGradient id="grad1_0" x1="33.3%" y1="100%" x2="100%" y2="0%"><stop offset="20%" stop-color="#1f2937" stop-opacity="1"></stop><stop offset="80%" stop-color="#1f2937" stop-opacity="1"></stop></linearGradient></defs><defs><linearGradient id="grad2_0" x1="0%" y1="100%" x2="66.7%" y2="0%"><stop offset="20%" stop-color="#1f2937" stop-opacity="1"></stop><stop offset="80%" stop-color="#1f2937" stop-opacity="1"></stop></linearGradient></defs><g transform="translate(900, 600)"><path d="M-135.2 0C-126.3 -14.3 -117.5 -28.6 -112.7 -46.7C-107.9 -64.8 -107.2 -86.6 -95.6 -95.6C-84 -104.6 -61.4 -100.9 -43.6 -105.3C-25.9 -109.8 -12.9 -122.5 0 -135.2L0 0Z" fill="#0d9488"></path></g><g transform="translate(0, 0)"><path d="M135.2 0C133.8 17.9 132.4 35.8 124.9 51.7C117.4 67.7 103.9 81.6 89.1 89.1C74.3 96.6 58.3 97.8 43.2 104.4C28.2 111 14.1 123.1 0 135.2L0 0Z" fill="#0d9488"></path></g></svg>