<svg id="visual" viewBox="0 0 900 600" width="900" height="600" xmlns="http://www.w3.org/2000/svg" xmlns:xlink="http://www.w3.org/1999/xlink" version="1.1"><rect x="0" y="0" width="900" height="600" fill="#1e293b"></rect><path d="M61 0L69.2 12.5C77.3 25 93.7 50 104.7 75C115.7 100 121.3 125 122.3 150C123.3 175 119.7 200 103.5 225C87.3 250 58.7 275 53.2 300C47.7 325 65.3 350 74.3 375C83.3 400 83.7 425 77.8 450C72 475 60 500 61 525C62 550 76 575 83 587.5L90 600L0 600L0 587.5C0 575 0 550 0 525C0 500 0 475 0 450C0 425 0 400 0 375C0 350 0 325 0 300C0 275 0 250 0 225C0 200 0 175 0 150C0 125 0 100 0 75C0 50 0 25 0 12.5L0 0Z" fill="#0d9488" stroke-linecap="round" stroke-linejoin="miter"></path></svg>